HIERARCHY
ROOT Hips
{
	OFFSET 0.00 0.00 0.00
	CHANNELS 6 Xposition Yposition Zposition Xrotation Yrotation Zrotation
	JOINT LeftUpLeg
	{
		OFFSET 3.34807 0.00000 0.00000
		CHANNELS 3 Xrotation Yrotation Zrotation
		JOINT LeftLeg
		{
			OFFSET 0.00000 -16.98552 0.00000
			CHANNELS 3 Xrotation Yrotation Zrotation
			JOINT LeftFoot
			{
				OFFSET 0.00000 -16.83686 0.00000
				CHANNELS 3 Xrotation Yrotation Zrotation
				JOINT LeftToeBase
				{
					OFFSET 0.00000 -1.59599 5.95633
					CHANNELS 3 Xrotation Yrotation Zrotation
					End Site
					{
						OFFSET 0.00000 0.00000 2.95275
					}
				}
			}
		}
	}
	JOINT RightUpLeg
	{
		OFFSET -3.34807 0.00000 0.00000
		CHANNELS 3 Xrotation Yrotation Zrotation
		JOINT RightLeg
		{
			OFFSET 0.00000 -16.98552 0.00000
			CHANNELS 3 Xrotation Yrotation Zrotation
			JOINT RightFoot
			{
				OFFSET 0.00000 -16.83686 0.00000
				CHANNELS 3 Xrotation Yrotation Zrotation
				JOINT RightToeBase
				{
					OFFSET 0.00000 -1.59599 5.95633
					CHANNELS 3 Xrotation Yrotation Zrotation
					End Site
					{
						OFFSET 0.00000 0.00000 2.95275
					}
				}
			}
		}
	}
	JOINT Spine
	{
		OFFSET 0.00000 0.03937 0.00000
		CHANNELS 3 Xrotation Yrotation Zrotation
		JOINT Spine1
		{
			OFFSET 0.00000 7.93124 0.00000
			CHANNELS 3 Xrotation Yrotation Zrotation
			JOINT Neck
			{
				OFFSET 0.00000 8.48368 0.00000
				CHANNELS 3 Xrotation Yrotation Zrotation
				JOINT Head
				{
					OFFSET 0.00000 6.65077 0.00000
					CHANNELS 3 Xrotation Yrotation Zrotation
					End Site
					{
						OFFSET 0.00000 4.52755 0.00000
					}
				}
			}
			JOINT LeftShoulder
			{
				OFFSET 0.00000 8.48368 0.00000
				CHANNELS 3 Xrotation Yrotation Zrotation
				JOINT LeftArm
				{
					OFFSET 7.74502 -0.00003 0.00000
					CHANNELS 3 Xrotation Yrotation Zrotation
					JOINT LeftForeArm
					{
						OFFSET 12.49824 -0.00005 0.00000
						CHANNELS 3 Xrotation Yrotation Zrotation
						JOINT LeftHand
						{
							OFFSET 9.88337 -0.00004 0.00000
							CHANNELS 3 Xrotation Yrotation Zrotation
							JOINT LeftHandThumb
							{
								OFFSET 0.00000 0.00000 0.00000
								CHANNELS 3 Xrotation Yrotation Zrotation
								End Site
								{
									OFFSET 0.00000 0.00000 3.93700
								}
							}
							JOINT L_Wrist_End
							{
								OFFSET 3.93700 -0.00001 0.00000
								CHANNELS 3 Xrotation Yrotation Zrotation
							}
						}
					}
				}
			}
			JOINT RightShoulder
			{
				OFFSET 0.00000 8.48368 0.00000
				CHANNELS 3 Xrotation Yrotation Zrotation
				JOINT RightArm
				{
					OFFSET -7.74502 -0.00003 0.00000
					CHANNELS 3 Xrotation Yrotation Zrotation
					JOINT RightForeArm
					{
						OFFSET -12.49824 -0.00005 0.00000
						CHANNELS 3 Xrotation Yrotation Zrotation
						JOINT RightHand
						{
							OFFSET -9.88337 -0.00004 0.00000
							CHANNELS 3 Xrotation Yrotation Zrotation
							JOINT RightHandThumb
							{
								OFFSET 0.00000 0.00000 0.00000
								CHANNELS 3 Xrotation Yrotation Zrotation
								End Site
								{
									OFFSET 0.00000 0.00000 3.93700
								}
							}
							JOINT R_Wrist_End
							{
								OFFSET -5.39369 -0.00002 0.00000
								CHANNELS 3 Xrotation Yrotation Zrotation
							}
						}
					}
				}
			}
		}
	}
}
MOTION
Frames: 11
Frame Time: 0.033332
 -1.0586 32.3805 -5.9468 5.0779 -2.6247 -4.3830 -23.8084 5.9410 9.3661 56.1973 -0.0000 0.0000 -31.0569 11.2924 -21.4224 -3.2297 0.0000 0.0000 -34.0357 -10.2847 1.5079 58.0360 -0.0000 0.0000 -18.8047 -23.7737 26.1801 2.0769 0.0000 -0.0000 -1.0813 -6.7081 -1.3968 22.8193 -8.5102 5.2309 -11.2435 10.6748 4.7813 -18.4720 -6.5958 -2.8138 -14.6356 6.1632 27.6481 -58.4386 -5.2921 -86.1441 -0.0002 -48.6432 -0.0001 -24.5398 -53.6859 47.3469 -0.0000 0.0000 -0.0000 -0.0000 0.0000 -0.0000 23.7255 -14.1807 -9.9132 -12.8925 31.0184 90.3225 0.0000 -5.4420 0.0000 81.5921 -75.7638 -99.8209 -0.0000 0.0000 -0.0000 -0.0000 0.0000 -0.0000
 -1.2353 31.8033 -5.7471 4.7528 -3.7140 -4.0198 -25.3412 5.2503 9.3710 61.3594 -0.0000 0.0000 -31.9482 12.5123 -22.6288 -4.8654 0.0000 0.0000 -34.3014 -10.5318 1.2961 60.0969 -0.0000 0.0000 -22.6497 -23.4306 26.0955 3.9248 0.0000 0.0000 -1.1774 -5.6506 -1.0891 23.0372 -7.1787 5.5873 -11.2584 10.7679 4.5777 -19.0604 -6.8014 -2.4434 -13.4127 7.0066 25.6037 -51.5295 -10.2993 -90.1000 -0.0002 -42.2712 -0.0001 -24.8941 -52.1683 47.8960 -0.0000 0.0000 -0.0000 -0.0000 0.0000 -0.0000 21.5088 -10.8901 -9.1753 -19.8188 30.9389 92.2994 0.0000 -5.5417 0.0000 80.0114 -77.9946 -98.1999 -0.0000 0.0000 -0.0000 -0.0000 0.0000 -0.0000
 -1.4030 31.3920 -5.4223 3.5149 -4.8596 -3.5639 -26.7239 4.9397 9.6793 67.7946 -0.0000 0.0000 -29.0221 12.3619 -25.2422 -9.7008 0.0000 0.0000 -32.8988 -11.0121 0.9457 61.0030 -0.0000 0.0000 -26.8263 -22.5131 23.2387 6.0195 -0.0000 -0.0000 -1.0992 -4.7738 -0.7975 23.3166 -6.1203 5.8019 -11.3822 11.2409 4.8054 -18.5309 -6.5762 -2.8296 -11.8578 8.1579 22.9976 -44.8055 -16.5926 -93.6427 -0.0001 -31.9517 -0.0000 -26.5623 -47.0808 42.3096 -0.0000 0.0000 -0.0000 -0.0000 0.0000 -0.0000 19.2837 -7.2701 -7.9470 -27.8644 30.3736 92.6111 0.0000 -5.8153 0.0000 77.7896 -80.5932 -96.3306 -0.0000 0.0000 -0.0000 -0.0000 0.0000 -0.0000
 -1.5870 31.2658 -5.1271 2.2998 -5.9751 -3.1699 -30.6006 3.8561 10.5784 76.8781 -0.0000 0.0000 -18.7230 10.2129 -27.4652 -19.3866 0.0000 0.0000 -31.3733 -10.8622 0.8467 61.3629 -0.0000 0.0000 -28.4988 -21.6091 22.5090 6.8216 0.0000 -0.0000 -1.0219 -4.1481 -0.6521 23.3477 -5.2464 6.1569 -11.9337 11.6650 5.4547 -16.7921 -5.8872 -3.8265 -10.5591 9.4964 21.0633 -37.1367 -22.4163 -97.4559 -0.0001 -20.0489 -0.0000 -24.9228 -41.2819 36.2486 -0.0000 0.0000 -0.0000 -0.0000 0.0000 -0.0000 16.8174 -3.4006 -6.9053 -36.7704 29.2670 91.8977 0.0000 -5.2454 0.0000 75.0185 -84.0874 -95.8159 -0.0000 0.0000 -0.0000 -0.0000 0.0000 -0.0000
 -1.6986 31.4583 -4.8477 0.9039 -7.1510 -2.9146 -36.4044 2.1935 11.5413 86.4275 -0.0000 0.0000 -5.3148 8.2366 -30.0607 -11.4950 0.0000 -0.0000 -28.9156 -10.7455 0.6605 60.0169 -0.0000 0.0000 -28.2665 -20.1712 22.0919 6.2694 -0.0000 0.0000 -0.9054 -3.5337 -0.3378 23.7107 -4.3662 6.5366 -12.2927 11.8664 5.8522 -15.6811 -5.0106 -5.1833 -9.1983 11.5901 19.7426 -28.9213 -28.9791 -101.4178 -0.0000 -10.4839 -0.0000 -19.0109 -37.5735 38.7609 -0.0000 0.0000 -0.0000 -0.0000 0.0000 -0.0000 14.3414 -0.1347 -7.2301 -46.7036 24.6705 91.4055 0.0000 -3.0302 0.0000 80.8359 -87.7822 -90.2399 -0.0000 0.0000 -0.0000 -0.0000 0.0000 -0.0000
 -1.7261 31.9673 -4.5537 -0.1630 -8.7829 -1.8341 -42.7368 2.2699 12.0264 93.5750 -0.0000 0.0000 -0.4988 8.0889 -27.9308 5.2810 -0.0000 0.0000 -25.9296 -10.2556 -0.3167 56.5981 -0.0000 0.0000 -27.2845 -18.3073 22.0483 6.6237 0.0000 -0.0000 -0.6446 -2.3269 -0.2480 23.2099 -3.4023 5.9277 -12.5271 11.9004 6.1439 -14.3395 -4.7369 -6.3178 -7.5381 15.0109 18.8745 -19.0420 -32.2930 -103.7230 -0.0000 -5.2390 -0.0000 -13.1558 -34.6257 41.2296 -0.0000 0.0000 -0.0000 -0.0000 0.0000 -0.0000 11.6595 2.7679 -8.5558 -55.3764 18.6797 91.0714 -0.0000 0.8025 0.0000 90.6799 -88.0449 -82.6719 -0.0000 0.0000 -0.0000 -0.0000 0.0000 -0.0000
 -1.6734 32.8187 -4.2282 -0.7115 -10.3113 -0.1019 -48.9973 3.0683 11.7278 99.1725 -0.0000 0.0000 -4.8152 10.5445 -27.4905 1.5647 -0.0000 0.0000 -22.3234 -9.0451 -1.6512 50.7598 -0.0000 0.0000 -24.7618 -16.9298 22.4277 6.5654 -0.0000 0.0000 -0.4819 -0.1557 -0.1874 22.1428 -1.9076 4.3661 -12.3039 11.0181 6.1667 -13.7027 -5.8099 -7.1459 -4.7328 19.0709 17.9427 -7.8151 -33.4711 -101.2563 -0.0000 -5.4243 -0.0000 -8.8308 -31.8474 34.1550 -0.0000 0.0000 -0.0000 -0.0000 0.0000 -0.0000 9.3370 4.2066 -10.0516 -62.3542 16.4942 89.6654 -0.0000 6.0055 0.0000 83.7875 -87.2865 -89.5264 -0.0000 -0.0000 0.0000 -0.0000 -0.0000 0.0000
 -1.6114 33.9627 -3.9537 -0.8466 -10.0024 1.4380 -55.5354 2.6193 10.0553 103.9078 -0.0000 0.0000 -6.2333 9.9115 -27.0819 0.7133 -0.0000 0.0000 -17.5156 -8.8594 -2.8536 41.7890 -0.0000 0.0000 -20.3868 -16.4426 23.2855 6.1968 -0.0000 0.0000 -0.3517 1.6771 -0.1229 21.1036 -0.6660 2.9576 -11.4512 9.3221 5.3480 -14.1232 -7.7843 -6.6076 -3.5411 21.3822 18.6120 4.7180 -39.6200 -95.8149 -0.0000 -8.8855 -0.0000 -13.5431 -30.8234 26.0977 -0.0000 0.0000 -0.0000 -0.0000 0.0000 -0.0000 7.5737 4.8673 -12.1719 -67.6274 15.6904 86.6432 -0.0000 11.9172 0.0000 62.7593 -86.4464 -109.8149 -0.0000 0.0000 -0.0000 -0.0000 0.0000 -0.0000
 -1.4711 35.2203 -3.7179 -0.8167 -8.0834 3.1657 -61.9349 2.0787 6.6740 107.3804 -0.0000 0.0000 -7.9521 8.3215 -25.6615 0.3375 -0.0000 -0.0000 -12.2643 -10.0179 -4.5445 31.2305 -0.0000 0.0000 -13.3792 -16.1424 25.7411 5.3228 -0.0000 -0.0000 0.0972 2.8662 0.0391 19.8524 -0.1646 1.3544 -11.2675 7.1905 4.4460 -13.3088 -9.4712 -6.0523 -2.5961 22.7771 20.1759 17.7688 -45.1374 -88.1120 -0.0000 -12.2505 -0.0000 -17.5133 -32.3238 24.3869 -0.0000 -0.0000 0.0000 -0.0000 -0.0000 0.0000 6.7027 4.4679 -14.3052 -72.2416 17.0919 82.4161 -0.0001 17.0447 0.0000 43.8453 -85.7929 -128.3773 -0.0000 -0.0000 0.0000 -0.0000 -0.0000 0.0000
 -1.2967 36.3891 -3.5245 -0.7856 -5.9895 4.5728 -67.6352 2.0469 3.4131 110.1024 -0.0000 0.0000 -10.3240 6.7733 -24.4485 0.1437 -0.0000 0.0000 -8.1359 -12.4467 -6.1280 22.2480 -0.0000 0.0000 -4.4291 -15.0214 29.1010 3.0453 0.0000 -0.0000 0.4213 3.9534 0.5251 19.3797 0.2755 -0.2208 -11.9594 4.8493 3.9825 -12.1642 -10.6033 -6.9374 0.0180 23.8632 20.9018 27.8288 -42.9877 -80.4850 -0.0001 -14.6796 -0.0000 -15.0409 -34.9794 26.8620 -0.0000 -0.0000 0.0000 -0.0000 -0.0000 0.0000 5.6474 3.3687 -16.9134 -75.8392 17.4246 77.7239 -0.0001 21.8715 0.0000 13.2700 -85.7362 -159.0396 -0.0000 0.0000 -0.0000 -0.0000 0.0000 -0.0000
 -1.1551 37.3260 -3.4178 -0.3020 -5.0283 5.5844 -72.7503 2.5315 1.7078 112.3657 -0.0000 0.0000 -11.6548 5.7700 -23.2042 -1.9650 0.0000 0.0000 -6.3924 -14.6331 -7.1006 16.6132 -0.0000 0.0000 3.4435 -13.6572 31.2365 -0.4211 -0.0000 0.0000 0.2109 4.8803 1.1882 19.6571 0.3694 -2.2410 -13.1047 3.9063 4.1531 -11.2255 -11.4823 -7.9390 1.3924 24.8625 22.3503 34.4871 -35.1369 -76.2311 -0.0001 -15.6322 -0.0000 -14.6449 -35.5557 29.2223 -0.0000 0.0000 -0.0000 -0.0000 0.0000 -0.0000 4.4632 3.3574 -18.9500 -79.7139 17.9769 72.6957 -0.0001 24.7271 0.0000 14.7252 -84.9409 -158.6526 -0.0000 -0.0000 0.0000 -0.0000 -0.0000 0.0000
